<?xml version="1.0" encoding="UTF-8" standalone="no"?><!DOCTYPE svg PUBLIC "-//W3C//DTD SVG 1.1//EN" "http://www.w3.org/Graphics/SVG/1.1/DTD/svg11.dtd"><svg width="100%" height="100%" viewBox="0 0 4059 880" version="1.1" xmlns="http://www.w3.org/2000/svg" xmlns:xlink="http://www.w3.org/1999/xlink" xml:space="preserve" xmlns:serif="http://www.serif.com/" fill="#ffffff" style="fill-rule:evenodd;clip-rule:evenodd;stroke-linejoin:round;stroke-miterlimit:2;"><path d="M1467.721,878.721l-626.562,0c-49.15,0.017 -96.388,-18.942 -131.929,-52.883l-87.846,-84.046c-35.538,-33.942 -82.779,-52.883 -131.925,-52.883l-210.329,0c-11.717,0 -22.242,-7.117 -26.596,-17.987c-4.358,-10.867 -1.667,-23.3 6.804,-31.387l300.471,-286.925c4.342,-4.15 5.729,-10.521 3.487,-16.113c-2.242,-5.575 -7.637,-9.237 -13.646,-9.237c-3.783,-0.033 -7.45,1.404 -10.208,4.008l-240.642,229.825c-35.521,33.958 -82.779,52.9 -131.925,52.883l-138.229,0c-11.7,0 -22.221,-7.117 -26.579,-17.988c-4.358,-10.85 -1.667,-23.263 6.788,-31.354l273.125,-260.8c35.521,-33.942 82.779,-52.883 131.908,-52.883l467.171,0c11.7,-0.017 22.237,7.117 26.596,17.987c4.358,10.867 1.65,23.3 -6.804,31.371l-291.104,278.833c-8.542,8.054 -11.304,20.521 -6.962,31.442c4.358,10.921 14.929,18.071 26.667,18.038l116.388,0c49.15,0 79.267,34.429 114.804,68.388c0,0 110.192,104.799 168.525,104.799l108.333,0c20.833,0 -41.667,-68.474 -41.667,-68.474l-156.217,-153.858c-23.229,22.187 -54.133,34.567 -86.25,34.567l-171.071,-1.221c-11.7,-0.017 -22.221,-7.133 -26.579,-17.987c-4.358,-10.867 -1.667,-23.283 6.787,-31.371l279.492,-259.613c35.538,-33.904 82.779,-52.812 131.892,-52.796l466.979,0c11.7,0 22.221,7.133 26.579,17.988c4.342,10.867 1.667,23.283 -6.804,31.371l-138.542,132.342c-35.537,33.958 -82.796,52.9 -131.929,52.9l-91.129,0c-11.7,0 -22.221,7.133 -26.579,17.988c-4.358,10.867 -1.65,23.3 6.804,31.371l308.246,294.325c8.471,8.092 11.162,20.521 6.804,31.387c-4.342,10.867 -14.879,17.987 -26.596,17.987l0,0.008Zm-314.479,-468.283c3.767,0 7.396,-1.458 10.121,-4.062l57.533,-54.929c4.325,-4.15 5.696,-10.504 3.454,-16.058c-2.221,-5.575 -7.604,-9.221 -13.612,-9.221c-3.767,0 -7.379,1.458 -10.121,4.062l-57.517,54.929c-4.321,4.15 -5.696,10.504 -3.471,16.058c2.237,5.571 7.621,9.217 13.612,9.217l0,0.004Z"/><path d="M1586.696,137.904l-87.862,-84.029c-35.537,-33.958 -82.796,-52.9 -131.929,-52.9l-138.246,-0c-11.7,0 -22.237,7.133 -26.596,18.004c-4.358,10.867 -1.667,23.283 6.804,31.371l138.575,132.346c35.521,33.942 80.167,48.071 129.3,48.071l116.508,0c11.7,0 22.237,7.117 26.596,17.988c4.358,10.867 1.65,23.3 -6.825,31.387l-305.621,299.133c-8.471,8.075 -11.162,20.504 -6.821,31.371c4.358,10.867 14.896,17.988 26.596,17.988l138.229,0c49.133,0 96.371,-18.925 131.892,-52.846l351.563,-335.679c8.454,-8.092 11.146,-20.504 6.787,-31.371c-4.358,-10.85 -14.879,-17.987 -26.579,-17.987l-210.608,0c-49.079,-0.017 -96.267,-18.942 -131.771,-52.846l0.008,-0Z" style="fill-rule:nonzero;"/><path d="M2162.5,628.633c-81.333,-0.229 -520.833,0 -520.833,0c-11.7,-0.017 -22.221,-7.137 -26.579,-17.988c-4.358,-10.867 -1.667,-23.283 6.788,-31.371l285.1,-274.233c35.521,-33.942 82.779,-52.883 131.908,-52.883l466.842,0c11.717,0 22.242,7.117 26.596,17.987c4.358,10.867 1.667,23.3 -6.804,31.371l-113.471,108.333c-35.538,33.925 -108.762,70.308 -157.875,70.292l-162.246,-0.779c-49.133,0 -96.371,18.942 -131.908,52.9c-4.013,3.821 -5.279,9.688 -3.213,14.825c2.05,5.138 7.033,8.525 12.571,8.525c0,0 101.304,-0.237 180.317,-0.471c79.012,-0.237 94.146,73.717 12.812,73.487l-0.004,0.004Zm25.413,-312.825l-0.087,0c-3.733,0.033 -7.308,1.475 -10,4.062l-55.746,53.262c-4.325,4.113 -5.696,10.45 -3.471,15.988c2.221,5.537 7.588,9.167 13.558,9.167c3.75,0 7.363,-1.458 10.088,-4.029l55.746,-53.283c4.325,-4.117 5.696,-10.45 3.471,-15.988c-2.221,-5.537 -7.588,-9.167 -13.558,-9.183l0,0.004Z"/><path d="M3446.475,182.696c0,0 -79.808,-102.55 -129.808,-102.55c-168.433,0 -328.442,-2.246 -496.846,-3.038c-49.15,0 -96.404,18.942 -131.946,52.9c-5.017,4.775 -6.596,12.133 -4.029,18.575c2.588,6.425 8.821,10.642 15.762,10.642l313.213,0c21.112,0 38.213,17.1 38.213,38.196c0,21.092 -17.1,38.196 -38.213,38.196l-27.029,0c-49.133,0 -96.371,18.942 -131.908,52.867l-300.938,287.308c-35.538,33.925 -82.758,52.846 -131.875,52.846l-138.246,0c-11.7,0 -22.237,-7.117 -26.596,-17.988c-4.358,-10.867 -1.667,-23.3 6.804,-31.387l299.1,-286.617c8.471,-8.092 21.829,-25.233 15.779,-40.483c-7.079,-17.85 -31.812,-17.85 -43.533,-17.85l-171.783,1.267c-11.7,0 -22.221,-7.137 -26.579,-17.987c-4.342,-10.867 -1.667,-23.279 6.787,-31.371l138.558,-132.363c35.521,-33.942 82.779,-52.883 131.908,-52.883l774.929,-0.975c2.963,0 77.733,0.975 77.733,0.975c49.133,0 96.388,18.942 131.925,52.9l87.867,84.029c35.504,33.904 82.692,52.829 131.771,52.846l210.608,0c11.7,0 22.221,7.137 26.579,17.987c4.358,10.867 1.667,23.279 -6.788,31.371l-351.562,335.679c-35.521,33.925 -82.758,52.846 -131.892,52.846l-138.229,0c-11.7,0 -22.242,-7.117 -26.596,-17.988c-4.342,-10.867 -1.65,-23.3 6.821,-31.371l308.229,-294.325c8.471,-8.092 11.179,-20.521 6.825,-31.388c-4.358,-10.867 -14.896,-17.987 -26.596,-17.987l-116.508,0c-49.133,0 -96.388,-18.942 -131.908,-52.883l-0.004,0.004Z"/><path d="M3429.233,360.217l61.475,-58.717c8.454,-8.075 11.129,-20.504 6.787,-31.354c-4.358,-10.867 -14.879,-17.987 -26.579,-17.987l-138.246,0c-49.15,0 -96.388,18.942 -131.925,52.883l-30.192,28.838c-2.725,2.604 -6.354,4.046 -10.137,4.046c-5.992,0.017 -11.404,-3.629 -13.629,-9.2c-2.242,-5.571 -0.85,-11.946 3.488,-16.075l11.65,-11.129c8.471,-8.075 11.162,-20.504 6.825,-31.354c-4.358,-10.867 -14.879,-18.004 -26.579,-18.004l-138.283,0c-49.079,0.017 -96.283,18.925 -131.788,52.812l-273.35,260.85c-8.454,8.075 -11.162,20.504 -6.804,31.371c4.342,10.867 14.879,17.988 26.579,18.004l138.317,0c49.062,0 96.25,-18.871 131.787,-52.725l38.438,-36.65c11.075,-10.554 28.488,-10.554 39.55,0l238.213,227.446c35.537,33.942 82.779,52.867 131.892,52.867l138.246,0c11.7,0.017 22.238,-7.117 26.596,-17.988c4.358,-10.867 1.667,-23.3 -6.804,-31.371l-308.246,-294.321c-8.471,-8.092 -11.162,-20.504 -6.804,-31.371c4.358,-10.883 14.879,-18.004 26.596,-18.004l91.112,0c49.117,-0.017 96.321,-18.958 131.825,-52.867l-0.008,-0Z" style="fill-rule:nonzero;"/></svg>