<?xml version="1.0" encoding="UTF-8" standalone="no"?><!DOCTYPE svg PUBLIC "-//W3C//DTD SVG 1.1//EN" "http://www.w3.org/Graphics/SVG/1.1/DTD/svg11.dtd"><svg width="100%" height="100%" viewBox="0 0 1177 1176" version="1.1" xmlns="http://www.w3.org/2000/svg" xmlns:xlink="http://www.w3.org/1999/xlink" xml:space="preserve" xmlns:serif="http://www.serif.com/" fill="#ffffff" style="fill-rule:evenodd;clip-rule:evenodd;stroke-linejoin:round;stroke-miterlimit:2;"><path d="M1176.524,304.504c0.025,225.691 0.021,449.299 0.129,672.906c0.009,18.239 -0.697,36.234 -11.061,52.119c-13.36,20.477 -33.869,26.992 -56.88,29.766c-28.942,3.489 -45.177,20.299 -48.527,48.151c-5.699,47.39 -27.607,67.551 -75.508,67.694c-114.581,0.341 -229.163,0.193 -343.744,0.207c-108.332,0.013 -216.663,0.077 -324.995,-0.068c-60.379,-0.081 -82.477,-22.585 -82.489,-83.509c-0.042,-219.441 -0.051,-438.882 -0.069,-658.323c-0.005,-57.277 15.67,-75.697 71.81,-84.405c24.013,-3.725 41.052,-21.27 44.413,-45.73c7.133,-51.914 27.663,-69.981 79.668,-70.007c66.666,-0.034 133.331,-0.104 199.997,-0.004c56.756,0.085 80.352,23.362 80.453,79.385c0.121,67.36 0.164,134.72 0.009,202.08c-0.116,50.326 -18.903,71.338 -69.348,78.291c-28.171,3.883 -46.352,23.109 -46.871,51.98c-0.711,39.567 -0.696,79.168 0.096,118.733c0.607,30.315 22.014,51.288 51.087,52.098c29.624,0.825 51.398,-18.202 55.057,-48.111c5.563,-45.469 23.724,-63.581 68.78,-68.593c28.029,-3.118 47.782,-22.721 47.861,-50.958c0.442,-156.939 0.516,-313.881 -0.018,-470.819c-0.107,-31.271 -22.64,-50.899 -56.367,-51.043c-86.108,-0.369 -172.219,-0.156 -258.329,-0.167c-65.971,-0.008 -131.943,-0.124 -197.913,0.043c-38.391,0.097 -55.759,15.537 -60.868,53.33c-5.109,37.792 -24.705,58.047 -60.965,63.017c-42.165,5.779 -55.561,21.312 -55.57,65.01c-0.054,259.718 -0.047,519.436 -0.079,779.154c-0.002,13.176 0.302,26.321 -2.856,39.349c-6.762,27.891 -29.371,47.019 -57.903,48.372c-27.402,1.3 -53.054,-16.889 -61.694,-43.79c-3.444,-10.722 -3.832,-21.775 -3.83,-32.944c0.047,-300.69 0.002,-601.38 0.027,-902.069c0.004,-51.85 18.007,-72.167 70.199,-79.741c26.471,-3.841 43.086,-21.276 46.141,-48.418c5.149,-45.748 27.792,-67.206 73.837,-67.265c226.385,-0.291 452.771,-0.31 679.156,0.022c48.22,0.071 73.651,25.623 73.702,73.506c0.243,226.385 0.199,452.771 -0.038,679.156c-0.046,43.738 -20.362,66.173 -63.863,72.812c-34.833,5.316 -48.547,19.186 -52.728,53.329c-4.863,39.717 -27.219,62.381 -67.115,62.969c-74.981,1.105 -150.01,1.212 -224.981,-0.217c-43.323,-0.826 -67.27,-27.292 -67.514,-70.867c-0.405,-72.219 -0.378,-144.443 -0.009,-216.662c0.218,-42.673 22.999,-67.124 65.289,-71.616c32.537,-3.457 50.636,-22.175 51.055,-54.261c0.499,-38.187 0.559,-76.391 0.029,-114.577c-0.443,-31.873 -21.086,-53.141 -51.184,-54.19c-30.553,-1.065 -51.433,17.728 -55.395,49.86c-5.27,42.734 -23.832,61.369 -66.408,66.672c-32.487,4.046 -50.236,22.49 -50.307,55.187c-0.334,154.163 -0.373,308.327 0.039,462.49c0.093,35.013 21.144,55.367 56.417,55.418c154.164,0.223 308.329,0.139 462.492,-0.161c31.2,-0.061 50.613,-18.184 54.365,-48.804c5.511,-44.973 24.167,-63.267 69.299,-67.949c26.558,-2.756 45.629,-22.554 47.324,-49.453c0.479,-7.613 0.302,-15.271 0.304,-22.909c0.048,-256.94 0.077,-513.881 0.126,-770.821c0.002,-13.176 -0.269,-26.306 2.919,-39.338c6.986,-28.555 31.349,-48.849 59.663,-49.032c28.574,-0.184 52.944,19.231 60.716,47.82c2.595,9.546 3.033,19.125 3.026,28.868c-0.05,74.983 -0.045,149.967 -0.056,227.034Z" style="fill-rule:nonzero;"/></svg>